Coordinates
version=1
nRows=21
nColumns=22
inDegrees=yes

Units are S.I. units (second, meters, Newtons, ...)
If the header above contains a line with 'inDegrees', this indicates whether rotational values are in degrees (yes) or radians (no).

endheader
time	pelvis_tilt	pelvis_list	pelvis_rotation	pelvis_tx	pelvis_ty	pelvis_tz	hip_flexion_r	hip_adduction_r	hip_rotation_r	knee_angle_r	ankle_angle_r	subtalar_angle_r	hip_flexion_l	hip_adduction_l	hip_rotation_l	knee_angle_l	ankle_angle_l	subtalar_angle_l	lumbar_extension	lumbar_bending	lumbar_rotation
      2.12000000	      0.01717562	     -6.13726896	     38.67908421	      0.73373752	      0.95863510	      0.70042198	     22.00163824	     -5.55213296	     -8.89821016	    -53.56975717	      6.52581368	      1.81779962	     12.07864322	      3.63375338	      7.72913327	    -21.69417805	     12.32793357	    -11.57778309	     -0.88802046	      2.14874761	     -7.67225701
      2.13000000	      0.19625410	     -6.17167677	     39.77460214	      0.73931619	      0.95880100	      0.69409124	     22.60861323	     -5.39860236	     -8.61422573	    -52.23403182	      6.83714879	      1.76622580	     11.17628401	      3.63905492	      8.63642616	    -21.22945321	     12.59287585	    -11.52033069	     -0.79391815	      2.24886259	     -7.86799163
      2.14000000	      0.36207343	     -6.19989771	     40.86024590	      0.74484329	      0.95885741	      0.68780415	     23.22625936	     -5.24757904	     -8.27362878	    -50.90815786	      7.06507748	      1.78412545	     10.29681743	      3.62624591	      9.53353737	    -20.78154894	     12.86266018	    -11.46255796	     -0.69629562	      2.33376122	     -8.04358667
      2.15000000	      0.52564536	     -6.21723600	     41.93169358	      0.75033457	      0.95883416	      0.68156455	     23.83565527	     -5.10320723	     -7.90067790	    -49.58781865	      7.20028465	      1.85436652	      9.42250163	      3.59002842	     10.41595506	    -20.34040461	     13.14196728	    -11.39908756	     -0.61365425	      2.40541883	     -8.19994419
      2.16000000	      0.68314548	     -6.22126758	     42.99083640	      0.75579793	      0.95873227	      0.67535352	     24.43465690	     -4.97911642	     -7.51792214	    -48.27797570	      7.22830775	      1.95702223	      8.55396239	      3.53729464	     11.28678988	    -19.90734905	     13.42339925	    -11.32816772	     -0.54190212	      2.46113618	     -8.33684239
      2.17000000	      0.84171797	     -6.21156147	     44.03524872	      0.76125428	      0.95856479	      0.66914458	     25.00933062	     -4.87470321	     -7.14236836	    -46.97417567	      7.14395496	      2.08082758	      7.68024605	      3.46367344	     12.14423898	    -19.47817190	     13.71195903	    -11.24802344	     -0.48424952	      2.50928652	     -8.45367728
      2.18000000	      0.99773281	     -6.19246156	     45.06667332	      0.76669548	      0.95833324	      0.66293371	     25.56116027	     -4.79384724	     -6.79475665	    -45.67062148	      6.92867016	      2.21554920	      6.80748802	      3.37100083	     12.99804494	    -19.05267535	     13.99714385	    -11.16253087	     -0.43510231	      2.55052818	     -8.54573823
      2.19000000	      1.16929000	     -6.15948662	     46.08832000	      0.77213720	      0.95805714	      0.65672558	     26.06504314	     -4.72544672	     -6.48699623	    -44.35902748	      6.60190589	      2.36992316	      5.91958670	      3.24805773	     13.84976674	    -18.63363877	     14.29156556	    -11.07048214	     -0.41723859	      2.59498819	     -8.63699627
      2.20000000	      1.33945283	     -6.12291146	     47.09802782	      0.77756725	      0.95771984	      0.65050927	     26.54119872	     -4.67423722	     -6.22561734	    -43.03480413	      6.13647227	      2.53754299	      5.03652718	      3.10290597	     14.70708166	    -18.22001693	     14.57115959	    -10.98201924	     -0.40466074	      2.63980460	     -8.70457333
      2.21000000	      1.51564604	     -6.08190740	     48.09738230	      0.78300322	      0.95732771	      0.64427900	     26.97659093	     -4.63282407	     -6.01533009	    -41.69111580	      5.55865239	      2.72889313	      4.15492819	      2.93051126	     15.56617660	    -17.81725335	     14.84472940	    -10.90005709	     -0.40367057	      2.69004929	     -8.75682787
      2.22000000	      1.69804533	     -6.03866077	     49.08970956	      0.78844344	      0.95688428	      0.63804209	     27.36927971	     -4.59706169	     -5.85996430	    -40.31944613	      4.88762084	      2.95725229	      3.27865910	      2.72866306	     16.42744779	    -17.42656014	     15.10934912	    -10.82482074	     -0.41287536	      2.74603426	     -8.79621246
      2.23000000	      1.88407994	     -5.99429571	     50.07123787	      0.79390113	      0.95638634	      0.63180855	     27.71970572	     -4.56127340	     -5.74632040	    -38.91580848	      4.16520234	      3.23584986	      2.41288254	      2.49803918	     17.27996488	    -17.05229384	     15.37350115	    -10.75633515	     -0.43115875	      2.80438974	     -8.82352542
      2.24000000	      2.07401369	     -5.95244368	     51.04874376	      0.79937428	      0.95583460	      0.62555994	     28.02782942	     -4.52103389	     -5.66815316	    -37.48045715	      3.42720401	      3.57427704	      1.56208380	      2.23747674	     18.12476541	    -16.69613087	     15.62699811	    -10.69067176	     -0.45050929	      2.87092449	     -8.84596509
      2.25000000	      2.26791732	     -5.89611912	     51.99378608	      0.80491145	      0.95524060	      0.61932150	     28.28531154	     -4.47138778	     -5.58793558	    -36.01967298	      2.75570965	      4.02724291	      0.70065328	      1.95241842	     18.92707939	    -16.33815083	     15.90366126	    -10.62565397	     -0.48940779	      2.92948330	     -8.83344135
      2.26000000	      2.44572296	     -5.86462115	     52.94616713	      0.81044045	      0.95455170	      0.61311081	     28.53462986	     -4.41481822	     -5.51784019	    -34.53243120	      2.16994750	      4.47630905	     -0.09402399	      1.64386684	     19.72380462	    -16.02623195	     16.15285543	    -10.56379483	     -0.50144425	      2.99095093	     -8.85445442
      2.27000000	      2.62674901	     -5.82472621	     53.87795833	      0.81601611	      0.95381490	      0.60690089	     28.73599328	     -4.34094064	     -5.40922872	    -33.02236740	      1.74451090	      5.00382577	     -0.88334294	      1.31620281	     20.49279915	    -15.73273877	     16.40300722	    -10.49795583	     -0.52650940	      3.05052570	     -8.85133350
      2.28000000	      2.79901323	     -5.79098007	     54.79678659	      0.82162371	      0.95300559	      0.60071677	     28.91328703	     -4.25657911	     -5.26724061	    -31.49783540	      1.50122258	      5.56331007	     -1.63555180	      0.97230686	     21.23524223	    -15.47298501	     16.63875887	    -10.42729507	     -0.54782074	      3.10504814	     -8.84778922
      2.29000000	      2.95640470	     -5.78039839	     55.73319086	      0.82722240	      0.95209345	      0.59453832	     29.08152003	     -4.17356679	     -5.11911693	    -29.96080362	      1.42463159	      5.98804054	     -2.31554331	      0.61441827	     21.97763416	    -15.27459083	     16.87536868	    -10.36225942	     -0.54447193	      3.15920616	     -8.89173934
      2.30000000	      3.11995353	     -5.72436083	     56.61255681	      0.83293519	      0.95117413	      0.58833971	     29.17620634	     -4.07362575	     -4.84185013	    -28.42425734	      1.56449993	      6.59562893	     -3.04979222	      0.25489731	     22.64097582	    -15.05616329	     17.14512040	    -10.27853815	     -0.59059140	      3.19068288	     -8.90346719
      2.31000000	      3.25534949	     -5.68473336	     57.49076879	      0.83863104	      0.95016755	      0.58213685	     29.27107237	     -3.98801233	     -4.52039756	    -26.89100922	      1.82283953	      7.15221025	     -3.71515841	     -0.09503246	     23.30788803	    -14.89580838	     17.37767906	    -10.18213163	     -0.61339971	      3.20842515	     -8.90123668
      2.32000000	      3.37064181	     -5.64715729	     58.40218245	      0.84428352	      0.94909622	      0.57589887	     29.33998170	     -3.93377992	     -4.18408031	    -25.36051319	      2.15762163	      7.52320278	     -4.32170312	     -0.43384901	     23.98362808	    -14.80308194	     17.60042376	    -10.09273384	     -0.63072688	      3.21029174	     -8.97359222
